<svg xmlns="http://www.w3.org/2000/svg" viewBox="0 0 199.95 160.08"><defs><style>.cls-1{fill:#212121;}</style></defs><g id="Layer_2" data-name="Layer 2"><g id="Layer_1-2" data-name="Layer 1"><polygon class="cls-1" points="129.9 0 119.72 17.63 117.84 20.87 109.86 34.71 70.39 34.71 60.22 52.31 50.35 69.43 48.42 72.75 40.17 87.03 48.42 101.3 48.42 104.14 10.09 104.14 0 86.66 9.92 69.43 13.7 62.89 13.7 62.86 19.96 52.03 29.97 34.71 40 17.31 48.42 2.76 50.01 0 129.9 0"/><polygon class="cls-1" points="199.95 73.53 199.95 73.56 189.92 90.93 186.93 96.08 186.93 96.11 179.77 108.5 179.77 108.53 170.21 125.08 170.19 125.08 160.04 142.68 160.04 142.71 151.93 156.72 151.93 156.75 150 160.08 69.85 160.08 79.89 142.71 83.07 137.16 90.07 125.08 130.13 125.08 139.99 107.99 139.99 107.96 149.83 90.93 151.93 87.32 159.72 73.82 151.93 60.31 151.93 56.22 189.97 56.22 199.95 73.53"/><rect class="cls-1" x="80.29" y="40.4" width="34.71" height="34.71"/><polygon class="cls-1" points="114.94 85.25 114.94 119.39 87.22 119.39 80.23 131.47 80.23 85.25 114.94 85.25"/></g></g></svg>