<svg xmlns="http://www.w3.org/2000/svg" viewBox="0 0 512.07 512.07"><defs><style>.cls-1{fill:#efefef;}</style></defs><g id="Layer_2" data-name="Layer 2"><g id="Layer_1-2" data-name="Layer 1"><path class="cls-1" d="M361.54,1.24a16.17,16.17,0,0,1,9.6,11.9L391,121l107.9,19.8a16.17,16.17,0,0,1,11.9,9.6,15.89,15.89,0,0,1-1.6,15.2L446.94,256l62.3,90.3a15.89,15.89,0,0,1,1.6,15.2,16.17,16.17,0,0,1-11.9,9.6L391,391l-19.9,107.9a16.17,16.17,0,0,1-9.6,11.9,15.89,15.89,0,0,1-15.2-1.6L256,446.94l-90.3,62.3a15.89,15.89,0,0,1-15.2,1.6,16.17,16.17,0,0,1-9.6-11.9L121,391l-107.9-19.9a16.17,16.17,0,0,1-11.9-9.6,15.89,15.89,0,0,1,1.6-15.2L65.14,256l-62.3-90.3a15.89,15.89,0,0,1-1.6-15.2,16.17,16.17,0,0,1,11.9-9.6L121,121l19.9-107.9a16.17,16.17,0,0,1,9.6-11.9,15.89,15.89,0,0,1,15.2,1.6L256,65.14l90.3-62.3A15.89,15.89,0,0,1,361.54,1.24ZM352,256a96,96,0,1,1-96-96A96,96,0,0,1,352,256Zm32,0A128,128,0,1,0,256,384,128,128,0,0,0,384,256Z"/></g></g></svg>